<mxfile host="Electron" agent="Mozilla/5.0 (Windows NT 10.0; Win64; x64) AppleWebKit/537.36 (KHTML, like Gecko) draw.io/28.0.6 Chrome/138.0.7204.100 Electron/37.2.3 Safari/537.36" version="28.0.6">
  <diagram name="Page-1" id="nTvZF3qgyd3iMXBJErwH">
    <mxGraphModel dx="1426" dy="841" grid="1" gridSize="10" guides="1" tooltips="1" connect="1" arrows="1" fold="1" page="1" pageScale="1" pageWidth="827" pageHeight="1169" math="0" shadow="0">
      <root>
        <mxCell id="0" />
        <mxCell id="1" parent="0" />
        <mxCell id="xmyFc0XgqRt_tl342oD8-20" value="" style="rounded=0;whiteSpace=wrap;html=1;strokeColor=none;" vertex="1" parent="1">
          <mxGeometry x="70" y="10" width="600" height="520" as="geometry" />
        </mxCell>
        <mxCell id="hrrgfzwv60jZ4S63TBEu-1" value="CollabAR Server" style="rounded=0;whiteSpace=wrap;html=1;fontSize=18;verticalAlign=top;fillColor=#f5f5f5;fontColor=#333333;strokeColor=#666666;" parent="1" vertex="1">
          <mxGeometry x="120" y="220" width="200" height="120" as="geometry" />
        </mxCell>
        <mxCell id="xmyFc0XgqRt_tl342oD8-7" style="edgeStyle=orthogonalEdgeStyle;rounded=0;orthogonalLoop=1;jettySize=auto;html=1;exitX=0.25;exitY=0;exitDx=0;exitDy=0;entryX=0.25;entryY=1;entryDx=0;entryDy=0;" edge="1" parent="1" source="hrrgfzwv60jZ4S63TBEu-3" target="hrrgfzwv60jZ4S63TBEu-1">
          <mxGeometry relative="1" as="geometry" />
        </mxCell>
        <mxCell id="xmyFc0XgqRt_tl342oD8-8" value="Room&lt;div&gt;Connection&lt;/div&gt;" style="edgeLabel;html=1;align=center;verticalAlign=middle;resizable=0;points=[];fontSize=16;labelBackgroundColor=none;" vertex="1" connectable="0" parent="xmyFc0XgqRt_tl342oD8-7">
          <mxGeometry x="0.2857" y="-2" relative="1" as="geometry">
            <mxPoint x="-52" y="15" as="offset" />
          </mxGeometry>
        </mxCell>
        <mxCell id="xmyFc0XgqRt_tl342oD8-9" style="edgeStyle=orthogonalEdgeStyle;rounded=0;orthogonalLoop=1;jettySize=auto;html=1;exitX=0.75;exitY=0;exitDx=0;exitDy=0;entryX=0.75;entryY=1;entryDx=0;entryDy=0;" edge="1" parent="1" source="hrrgfzwv60jZ4S63TBEu-3" target="hrrgfzwv60jZ4S63TBEu-1">
          <mxGeometry relative="1" as="geometry" />
        </mxCell>
        <mxCell id="xmyFc0XgqRt_tl342oD8-19" value="Object&lt;div&gt;Data&lt;/div&gt;" style="edgeLabel;html=1;align=center;verticalAlign=middle;resizable=0;points=[];fontSize=16;labelBackgroundColor=none;" vertex="1" connectable="0" parent="xmyFc0XgqRt_tl342oD8-9">
          <mxGeometry x="-0.0571" y="-1" relative="1" as="geometry">
            <mxPoint x="29" y="3" as="offset" />
          </mxGeometry>
        </mxCell>
        <mxCell id="hrrgfzwv60jZ4S63TBEu-3" value="Client" style="rounded=0;whiteSpace=wrap;html=1;fontSize=18;verticalAlign=top;fillColor=#f5f5f5;fontColor=#333333;strokeColor=#666666;" parent="1" vertex="1">
          <mxGeometry x="120" y="410" width="200" height="110" as="geometry" />
        </mxCell>
        <mxCell id="GPtdRGDKMHpEVYeSHmKi-1" style="edgeStyle=orthogonalEdgeStyle;rounded=0;orthogonalLoop=1;jettySize=auto;html=1;exitX=0.806;exitY=1.022;exitDx=0;exitDy=0;entryX=0.5;entryY=0;entryDx=0;entryDy=0;exitPerimeter=0;" parent="1" source="hrrgfzwv60jZ4S63TBEu-4" target="hrrgfzwv60jZ4S63TBEu-5" edge="1">
          <mxGeometry relative="1" as="geometry" />
        </mxCell>
        <mxCell id="GPtdRGDKMHpEVYeSHmKi-2" value="Room Creation" style="edgeLabel;html=1;align=center;verticalAlign=middle;resizable=0;points=[];fontSize=16;labelBackgroundColor=none;" parent="GPtdRGDKMHpEVYeSHmKi-1" vertex="1" connectable="0">
          <mxGeometry x="-0.0997" y="-2" relative="1" as="geometry">
            <mxPoint x="63" y="8" as="offset" />
          </mxGeometry>
        </mxCell>
        <mxCell id="hrrgfzwv60jZ4S63TBEu-4" value="Lightship" style="rounded=0;whiteSpace=wrap;html=1;fontSize=18;verticalAlign=top;fillColor=#f5f5f5;fontColor=#333333;strokeColor=#666666;" parent="1" vertex="1">
          <mxGeometry x="120" y="20" width="520" height="90" as="geometry" />
        </mxCell>
        <mxCell id="hrrgfzwv60jZ4S63TBEu-5" value="Room" style="rounded=0;whiteSpace=wrap;html=1;fontSize=18;verticalAlign=middle;fillColor=#dae8fc;strokeColor=#6c8ebf;" parent="1" vertex="1">
          <mxGeometry x="450" y="245" width="180" height="70" as="geometry" />
        </mxCell>
        <mxCell id="hrrgfzwv60jZ4S63TBEu-6" value="- Profile&lt;div&gt;- Session Role&lt;/div&gt;&lt;div&gt;- Session Task&lt;/div&gt;" style="text;strokeColor=none;fillColor=none;align=left;verticalAlign=middle;spacingLeft=4;spacingRight=4;overflow=hidden;points=[[0,0.5],[1,0.5]];portConstraint=eastwest;rotatable=0;whiteSpace=wrap;html=1;fontSize=16;" parent="1" vertex="1">
          <mxGeometry x="130" y="430" width="140" height="70" as="geometry" />
        </mxCell>
        <mxCell id="hrrgfzwv60jZ4S63TBEu-11" value="- Room Configuration" style="text;strokeColor=none;fillColor=none;align=left;verticalAlign=middle;spacingLeft=4;spacingRight=4;overflow=hidden;points=[[0,0.5],[1,0.5]];portConstraint=eastwest;rotatable=0;whiteSpace=wrap;html=1;fontSize=16;" parent="1" vertex="1">
          <mxGeometry x="220" y="50" width="250" height="40" as="geometry" />
        </mxCell>
        <mxCell id="GPtdRGDKMHpEVYeSHmKi-5" value="- Room State&lt;div&gt;- Session Goal&lt;br&gt;&lt;div&gt;- Digital Object Data&lt;/div&gt;&lt;/div&gt;" style="text;strokeColor=none;fillColor=none;align=left;verticalAlign=middle;spacingLeft=4;spacingRight=4;overflow=hidden;points=[[0,0.5],[1,0.5]];portConstraint=eastwest;rotatable=0;whiteSpace=wrap;html=1;fontSize=16;" parent="1" vertex="1">
          <mxGeometry x="130" y="260" width="170" height="60" as="geometry" />
        </mxCell>
        <mxCell id="xmyFc0XgqRt_tl342oD8-3" style="edgeStyle=orthogonalEdgeStyle;rounded=0;orthogonalLoop=1;jettySize=auto;html=1;exitX=0.75;exitY=0;exitDx=0;exitDy=0;entryX=0.288;entryY=1;entryDx=0;entryDy=0;entryPerimeter=0;" edge="1" parent="1" source="hrrgfzwv60jZ4S63TBEu-1" target="hrrgfzwv60jZ4S63TBEu-4">
          <mxGeometry relative="1" as="geometry" />
        </mxCell>
        <mxCell id="xmyFc0XgqRt_tl342oD8-4" value="Client&lt;div&gt;Connection&lt;/div&gt;" style="edgeLabel;html=1;align=center;verticalAlign=middle;resizable=0;points=[];fontSize=16;labelBackgroundColor=none;" vertex="1" connectable="0" parent="xmyFc0XgqRt_tl342oD8-3">
          <mxGeometry x="-0.004" y="-2" relative="1" as="geometry">
            <mxPoint x="48" y="-15" as="offset" />
          </mxGeometry>
        </mxCell>
        <mxCell id="xmyFc0XgqRt_tl342oD8-5" style="edgeStyle=orthogonalEdgeStyle;rounded=0;orthogonalLoop=1;jettySize=auto;html=1;exitX=0.25;exitY=0;exitDx=0;exitDy=0;entryX=0.096;entryY=0.978;entryDx=0;entryDy=0;entryPerimeter=0;" edge="1" parent="1" source="hrrgfzwv60jZ4S63TBEu-1" target="hrrgfzwv60jZ4S63TBEu-4">
          <mxGeometry relative="1" as="geometry" />
        </mxCell>
        <mxCell id="xmyFc0XgqRt_tl342oD8-6" value="Room&lt;div&gt;Start&lt;/div&gt;" style="edgeLabel;html=1;align=center;verticalAlign=middle;resizable=0;points=[];fontSize=16;labelBackgroundColor=none;" vertex="1" connectable="0" parent="xmyFc0XgqRt_tl342oD8-5">
          <mxGeometry x="0.0988" y="3" relative="1" as="geometry">
            <mxPoint x="-27" y="-8" as="offset" />
          </mxGeometry>
        </mxCell>
        <mxCell id="xmyFc0XgqRt_tl342oD8-14" style="edgeStyle=orthogonalEdgeStyle;rounded=0;orthogonalLoop=1;jettySize=auto;html=1;exitX=0;exitY=0.25;exitDx=0;exitDy=0;entryX=1.015;entryY=0.35;entryDx=0;entryDy=0;entryPerimeter=0;startArrow=classic;startFill=1;endArrow=none;endFill=0;" edge="1" parent="1" source="hrrgfzwv60jZ4S63TBEu-5" target="hrrgfzwv60jZ4S63TBEu-1">
          <mxGeometry relative="1" as="geometry" />
        </mxCell>
        <mxCell id="xmyFc0XgqRt_tl342oD8-15" value="Room&lt;div&gt;Reconstruction&lt;/div&gt;" style="edgeLabel;html=1;align=center;verticalAlign=middle;resizable=0;points=[];fontSize=16;labelBackgroundColor=none;" vertex="1" connectable="0" parent="xmyFc0XgqRt_tl342oD8-14">
          <mxGeometry x="0.1216" y="3" relative="1" as="geometry">
            <mxPoint x="2" y="-25" as="offset" />
          </mxGeometry>
        </mxCell>
        <mxCell id="xmyFc0XgqRt_tl342oD8-17" style="edgeStyle=orthogonalEdgeStyle;rounded=0;orthogonalLoop=1;jettySize=auto;html=1;exitX=0;exitY=0.75;exitDx=0;exitDy=0;entryX=1.01;entryY=0.65;entryDx=0;entryDy=0;entryPerimeter=0;startArrow=classic;startFill=1;endArrow=none;endFill=0;" edge="1" parent="1" source="hrrgfzwv60jZ4S63TBEu-5" target="hrrgfzwv60jZ4S63TBEu-1">
          <mxGeometry relative="1" as="geometry" />
        </mxCell>
        <mxCell id="xmyFc0XgqRt_tl342oD8-18" value="Object&lt;div&gt;Initialization&lt;/div&gt;" style="edgeLabel;html=1;align=center;verticalAlign=middle;resizable=0;points=[];fontSize=16;labelBackgroundColor=none;" vertex="1" connectable="0" parent="xmyFc0XgqRt_tl342oD8-17">
          <mxGeometry x="0.1128" relative="1" as="geometry">
            <mxPoint y="22" as="offset" />
          </mxGeometry>
        </mxCell>
      </root>
    </mxGraphModel>
  </diagram>
</mxfile>
